<mxfile host="app.diagrams.net" modified="2023-12-21T05:30:43.198Z" agent="Mozilla/5.0 (Windows NT 10.0; Win64; x64) AppleWebKit/537.36 (KHTML, like Gecko) Chrome/120.0.0.0 Safari/537.36" etag="ddakn9wHPOk0ouFcHaKP" version="22.1.11" type="github">
  <diagram name="Page-1" id="M2ceA73FokTF1EjzmmmE">
    <mxGraphModel dx="1644" dy="446" grid="1" gridSize="10" guides="1" tooltips="1" connect="1" arrows="1" fold="1" page="1" pageScale="1" pageWidth="850" pageHeight="1100" math="0" shadow="0">
      <root>
        <mxCell id="0" />
        <mxCell id="1" parent="0" />
        <mxCell id="3dFlOyT74Y5mHE1aEB6H-1" value="" style="image;html=1;image=img/lib/clip_art/computers/Server_128x128.png" vertex="1" parent="1">
          <mxGeometry x="190" y="70" width="80" height="80" as="geometry" />
        </mxCell>
        <mxCell id="3dFlOyT74Y5mHE1aEB6H-2" value="" style="image;html=1;image=img/lib/clip_art/networking/Router_128x128.png" vertex="1" parent="1">
          <mxGeometry x="578" y="144" width="80" height="80" as="geometry" />
        </mxCell>
        <mxCell id="3dFlOyT74Y5mHE1aEB6H-3" value="" style="image;aspect=fixed;html=1;points=[];align=center;fontSize=12;image=img/lib/azure2/networking/NAT.svg;" vertex="1" parent="1">
          <mxGeometry x="748" y="150" width="68" height="68" as="geometry" />
        </mxCell>
        <mxCell id="3dFlOyT74Y5mHE1aEB6H-4" value="Server" style="text;html=1;strokeColor=none;fillColor=none;align=center;verticalAlign=middle;whiteSpace=wrap;rounded=0;" vertex="1" parent="1">
          <mxGeometry x="200" y="144" width="60" height="30" as="geometry" />
        </mxCell>
        <mxCell id="3dFlOyT74Y5mHE1aEB6H-5" value="Router" style="text;html=1;strokeColor=none;fillColor=none;align=center;verticalAlign=middle;whiteSpace=wrap;rounded=0;" vertex="1" parent="1">
          <mxGeometry x="588" y="224" width="60" height="30" as="geometry" />
        </mxCell>
        <mxCell id="3dFlOyT74Y5mHE1aEB6H-6" value="NAT (Network Address Translation)" style="text;html=1;strokeColor=none;fillColor=none;align=center;verticalAlign=middle;whiteSpace=wrap;rounded=0;" vertex="1" parent="1">
          <mxGeometry x="714" y="234" width="136" height="30" as="geometry" />
        </mxCell>
        <mxCell id="3dFlOyT74Y5mHE1aEB6H-7" value="" style="endArrow=none;html=1;rounded=0;exitX=1;exitY=0.5;exitDx=0;exitDy=0;entryX=0;entryY=0.5;entryDx=0;entryDy=0;" edge="1" parent="1" source="3dFlOyT74Y5mHE1aEB6H-1" target="3dFlOyT74Y5mHE1aEB6H-14">
          <mxGeometry width="50" height="50" relative="1" as="geometry">
            <mxPoint x="380" y="260" as="sourcePoint" />
            <mxPoint x="430" y="210" as="targetPoint" />
          </mxGeometry>
        </mxCell>
        <mxCell id="3dFlOyT74Y5mHE1aEB6H-8" value="" style="endArrow=none;html=1;rounded=0;exitX=1;exitY=0.5;exitDx=0;exitDy=0;entryX=0.02;entryY=0.529;entryDx=0;entryDy=0;entryPerimeter=0;" edge="1" parent="1" source="3dFlOyT74Y5mHE1aEB6H-2" target="3dFlOyT74Y5mHE1aEB6H-3">
          <mxGeometry width="50" height="50" relative="1" as="geometry">
            <mxPoint x="628" y="334" as="sourcePoint" />
            <mxPoint x="678" y="284" as="targetPoint" />
          </mxGeometry>
        </mxCell>
        <mxCell id="3dFlOyT74Y5mHE1aEB6H-9" value="&lt;div&gt;In this architecture, the server is part of a local network, connected to a router that provides it with access to other networks, such as the internet. The NAT device, which is also typically part of the router, manages the translation of local IP addresses to a single public IP address when communicating with external networks.&lt;/div&gt;&lt;div&gt;&lt;br&gt;&lt;/div&gt;&lt;div&gt;This setup is common in home and small business networks where multiple devices share a single internet connection and use private IP addresses internally, while the router performs the necessary address translation to communicate with external networks.&lt;/div&gt;&lt;div&gt;&lt;br&gt;&lt;/div&gt;&lt;div&gt;&lt;br&gt;&lt;/div&gt;&lt;div&gt;&lt;br&gt;&lt;/div&gt;&lt;div&gt;&lt;br&gt;&lt;/div&gt;&lt;div&gt;&lt;br&gt;&lt;/div&gt;" style="shape=note;whiteSpace=wrap;html=1;backgroundOutline=1;darkOpacity=0.05;" vertex="1" parent="1">
          <mxGeometry x="-220" y="40" width="370" height="290" as="geometry" />
        </mxCell>
        <mxCell id="3dFlOyT74Y5mHE1aEB6H-12" value="" style="image;html=1;image=img/lib/clip_art/computers/Server_128x128.png" vertex="1" parent="1">
          <mxGeometry x="190" y="234" width="80" height="80" as="geometry" />
        </mxCell>
        <mxCell id="3dFlOyT74Y5mHE1aEB6H-13" value="Server" style="text;html=1;strokeColor=none;fillColor=none;align=center;verticalAlign=middle;whiteSpace=wrap;rounded=0;" vertex="1" parent="1">
          <mxGeometry x="200" y="314" width="60" height="30" as="geometry" />
        </mxCell>
        <mxCell id="3dFlOyT74Y5mHE1aEB6H-14" value="" style="image;html=1;image=img/lib/clip_art/networking/Switch_128x128.png" vertex="1" parent="1">
          <mxGeometry x="370" y="144" width="80" height="80" as="geometry" />
        </mxCell>
        <mxCell id="3dFlOyT74Y5mHE1aEB6H-15" value="" style="endArrow=none;html=1;rounded=0;exitX=1;exitY=0.5;exitDx=0;exitDy=0;entryX=0;entryY=0.5;entryDx=0;entryDy=0;" edge="1" parent="1" source="3dFlOyT74Y5mHE1aEB6H-12" target="3dFlOyT74Y5mHE1aEB6H-14">
          <mxGeometry width="50" height="50" relative="1" as="geometry">
            <mxPoint x="280" y="120" as="sourcePoint" />
            <mxPoint x="340" y="240" as="targetPoint" />
          </mxGeometry>
        </mxCell>
        <mxCell id="3dFlOyT74Y5mHE1aEB6H-16" value="" style="endArrow=none;html=1;rounded=0;exitX=1;exitY=0.5;exitDx=0;exitDy=0;entryX=0;entryY=0.5;entryDx=0;entryDy=0;" edge="1" parent="1" source="3dFlOyT74Y5mHE1aEB6H-14" target="3dFlOyT74Y5mHE1aEB6H-2">
          <mxGeometry width="50" height="50" relative="1" as="geometry">
            <mxPoint x="280" y="284" as="sourcePoint" />
            <mxPoint x="380" y="194" as="targetPoint" />
          </mxGeometry>
        </mxCell>
        <mxCell id="3dFlOyT74Y5mHE1aEB6H-17" value="Ethernet Switch" style="text;html=1;strokeColor=none;fillColor=none;align=center;verticalAlign=middle;whiteSpace=wrap;rounded=0;" vertex="1" parent="1">
          <mxGeometry x="380" y="218" width="60" height="30" as="geometry" />
        </mxCell>
      </root>
    </mxGraphModel>
  </diagram>
</mxfile>
